<svg xmlns="http://www.w3.org/2000/svg" width="144" height="144" viewBox="0 0 144 144" fill="none"><metadata><rdf:RDF xmlns:rdf="http://www.w3.org/1999/02/22-rdf-syntax-ns#" xmlns:dc="http://purl.org/dc/elements/1.1/"><rdf:Description><dc:creator>RealFaviconGenerator</dc:creator><dc:source>https://realfavicongenerator.net</dc:source></rdf:Description></rdf:RDF></metadata><rect width="144" height="144" fill="black"></rect><rect x="11" y="12" width="117" height="120" fill="#FFD900"></rect><rect x="19" y="20" width="102" height="104" fill="black"></rect><path d="M108.904 111H57.2686C54.6318 111 51.751 110.536 48.626 109.608C45.501 108.681 42.5957 107.167 39.9102 105.067C37.2734 102.919 35.0518 100.16 33.2451 96.791C31.4873 93.373 30.6084 89.1982 30.6084 84.2666V58.4854C30.6084 56.6787 30.8037 54.7744 31.1943 52.7725C31.6338 50.7705 32.293 48.793 33.1719 46.8398C34.0508 44.8379 35.1738 42.9336 36.541 41.127C37.957 39.3203 39.6416 37.7334 41.5947 36.3662C43.5967 34.999 45.8916 33.9004 48.4795 33.0703C51.0674 32.2402 53.9971 31.8252 57.2686 31.8252H108.904V50.8682H57.2686C54.7783 50.8682 52.874 51.5029 51.5557 52.7725C50.2861 54.042 49.6514 55.9951 49.6514 58.6318V84.2666C49.6514 86.7568 50.3105 88.6611 51.6289 89.9795C52.9473 91.2979 54.876 91.957 57.415 91.957H108.904V111Z" fill="#FFD900"></path></svg>